<?xml version="1.0" encoding="utf-8"?>
<svg viewBox="0 0 500 500" xmlns="http://www.w3.org/2000/svg">
  <path d="M 477.165 131.967 C 477.33 132.574 477.413 133.197 477.415 133.824 L 477.415 231.309 C 477.415 233.855 476.053 236.208 473.843 237.475 L 392.022 284.583 L 392.022 377.954 C 392.022 380.495 390.671 382.841 388.468 384.12 L 217.674 482.44 C 217.283 482.662 216.856 482.804 216.43 482.956 C 216.27 483.009 216.118 483.107 215.951 483.151 C 214.755 483.466 213.501 483.466 212.308 483.151 C 212.112 483.097 211.934 482.991 211.747 482.92 C 211.356 482.778 210.948 482.654 210.574 482.44 L 39.816 384.12 C 37.608 382.851 36.246 380.5 36.244 377.954 L 36.244 85.499 C 36.244 84.861 36.333 84.239 36.493 83.633 C 36.546 83.43 36.671 83.242 36.742 83.039 C 36.876 82.665 36.999 82.284 37.195 81.937 C 37.328 81.706 37.524 81.519 37.684 81.305 C 37.889 81.021 38.075 80.728 38.314 80.48 C 38.518 80.275 38.785 80.124 39.016 79.946 C 39.275 79.733 39.506 79.502 39.798 79.333 L 39.806 79.333 L 125.192 30.172 C 127.391 28.906 130.099 28.906 132.298 30.172 L 217.682 79.333 L 217.701 79.333 C 217.984 79.511 218.225 79.733 218.483 79.937 C 218.714 80.115 218.971 80.275 219.174 80.47 C 219.425 80.728 219.601 81.021 219.816 81.305 C 219.966 81.519 220.17 81.706 220.294 81.937 C 220.499 82.292 220.614 82.665 220.756 83.039 C 220.829 83.242 220.951 83.43 221.005 83.641 C 221.169 84.247 221.253 84.873 221.254 85.499 L 221.254 268.164 L 292.405 227.196 L 292.405 133.816 C 292.405 133.194 292.493 132.562 292.653 131.967 C 292.715 131.754 292.831 131.567 292.902 131.363 C 293.044 130.989 293.168 130.608 293.364 130.262 C 293.497 130.03 293.694 129.843 293.844 129.63 C 294.057 129.346 294.235 129.054 294.483 128.803 C 294.687 128.599 294.945 128.449 295.176 128.272 C 295.443 128.058 295.674 127.827 295.958 127.658 L 295.968 127.658 L 381.36 78.498 C 383.56 77.231 386.268 77.231 388.468 78.498 L 473.851 127.658 C 474.154 127.835 474.385 128.058 474.652 128.262 C 474.873 128.44 475.131 128.599 475.335 128.795 C 475.584 129.054 475.761 129.346 475.975 129.63 C 476.134 129.843 476.33 130.03 476.454 130.262 C 476.659 130.608 476.774 130.989 476.916 131.363 C 476.997 131.567 477.112 131.754 477.165 131.967 Z M 463.181 227.196 L 463.181 146.13 L 433.3 163.331 L 392.022 187.098 L 392.022 268.164 L 463.189 227.196 Z M 377.796 373.841 L 377.796 292.721 L 337.193 315.911 L 221.246 382.086 L 221.246 463.968 L 377.796 373.841 Z M 50.478 97.804 L 50.478 373.841 L 207.012 463.96 L 207.012 382.094 L 125.236 335.813 L 125.208 335.795 L 125.172 335.778 C 124.897 335.618 124.666 335.387 124.41 335.191 C 124.187 335.013 123.93 334.871 123.733 334.675 L 123.717 334.65 C 123.486 334.427 123.326 334.151 123.129 333.903 C 122.951 333.662 122.738 333.458 122.596 333.21 L 122.588 333.183 C 122.428 332.917 122.33 332.597 122.215 332.295 C 122.099 332.028 121.948 331.779 121.877 331.495 L 121.877 331.487 C 121.788 331.149 121.77 330.793 121.735 330.446 C 121.699 330.18 121.628 329.913 121.628 329.647 L 121.628 329.629 L 121.628 138.773 L 80.358 114.998 L 50.478 97.813 Z M 128.754 44.548 L 57.612 85.499 L 128.736 126.45 L 199.869 85.49 L 128.736 44.548 Z M 165.75 300.113 L 207.02 276.356 L 207.02 97.804 L 177.141 115.006 L 135.861 138.773 L 135.861 317.323 L 165.75 300.113 Z M 384.914 92.875 L 313.781 133.824 L 384.914 174.774 L 456.037 133.816 L 384.914 92.875 Z M 377.796 187.098 L 336.518 163.331 L 306.637 146.13 L 306.637 227.196 L 347.908 250.954 L 377.796 268.164 L 377.796 187.098 Z M 214.12 369.78 L 318.454 310.217 L 370.61 280.451 L 299.53 239.528 L 217.692 286.644 L 143.103 329.586 L 214.12 369.78 Z" fill="#FF2D20" fill-rule="evenodd" style=""/>
</svg>