<?xml version="1.0" encoding="UTF-8"?>
<svg xmlns="http://www.w3.org/2000/svg" xmlns:xlink="http://www.w3.org/1999/xlink" width="25pt" height="25pt" viewBox="0 0 25 25" version="1.1">
<g id="surface1">
<path style=" stroke:none;fill-rule:evenodd;fill:rgb(0%,84.705882%,100%);fill-opacity:1;" d="M 14.320312 12.203125 C 14.320312 13.316406 13.414062 14.222656 12.300781 14.222656 C 11.1875 14.222656 10.285156 13.316406 10.285156 12.203125 C 10.285156 11.089844 11.1875 10.1875 12.300781 10.1875 C 13.414062 10.1875 14.320312 11.089844 14.320312 12.203125 Z M 14.320312 12.203125 "/>
<path style="fill:none;stroke-width:24;stroke-linecap:butt;stroke-linejoin:miter;stroke:rgb(0%,84.705882%,100%);stroke-opacity:1;stroke-miterlimit:4;" d="M 269.52409 135.630524 C 336.930332 135.630524 399.480217 145.246112 446.684011 161.563473 C 503.503394 181.08603 538.469168 210.806938 538.469168 237.614031 C 538.469168 265.58665 501.366597 297.152974 440.370747 317.355421 C 394.23535 332.604384 333.433755 340.665937 269.52409 340.665937 C 203.963264 340.665937 141.899015 333.09002 95.277983 317.161167 C 36.224676 296.95872 0.579012 265.101015 0.579012 237.614031 C 0.579012 211.001192 33.990752 181.571666 90.033117 162.049109 C 137.431166 145.537493 201.535085 135.630524 269.52409 135.630524 Z M 269.52409 135.630524 " transform="matrix(0.0402179,0,0,0.0402179,1.461088,2.646788)"/>
<path style="fill:none;stroke-width:24;stroke-linecap:butt;stroke-linejoin:miter;stroke:rgb(0%,84.705882%,100%);stroke-opacity:1;stroke-miterlimit:4;" d="M 180.749875 186.913659 C 214.355869 128.540242 253.983746 79.19965 291.66908 46.4678 C 337.027459 6.93705 380.151914 -8.506166 403.46243 4.89738 C 427.64709 18.88369 436.485661 66.767375 423.470623 129.705768 C 413.66078 177.395198 390.253137 233.9232 358.298305 289.285675 C 325.566455 346.105058 288.075376 396.12554 250.972804 428.566008 C 203.963264 469.650792 158.507758 484.511246 134.711606 470.816318 C 111.692472 457.509899 102.853901 413.899808 113.926396 355.623518 C 123.250602 306.282926 146.755373 245.869839 180.749875 186.913659 Z M 180.749875 186.913659 " transform="matrix(0.0402179,0,0,0.0402179,1.461088,2.646788)"/>
<path style="fill:none;stroke-width:24;stroke-linecap:butt;stroke-linejoin:miter;stroke:rgb(0%,84.705882%,100%);stroke-opacity:1;stroke-miterlimit:4;" d="M 180.847002 289.479929 C 147.046754 231.203639 124.124747 172.150332 114.509159 123.198249 C 102.951028 64.242069 111.109709 19.077944 134.420225 5.674397 C 158.604885 -8.409039 204.4489 7.908322 252.526839 50.644268 C 288.852393 82.890482 326.246346 131.454057 358.201178 186.816532 C 391.127282 243.538787 415.700451 300.940933 425.316038 349.310254 C 437.359805 410.597485 427.549963 457.315644 403.850938 471.1077 C 380.734677 484.414119 338.581494 470.330682 293.611623 431.57695 C 255.53778 398.8451 214.938632 348.338982 180.847002 289.479929 Z M 180.847002 289.479929 " transform="matrix(0.0402179,0,0,0.0402179,1.461088,2.646788)"/>
</g>
</svg>
