<?xml version="1.0" encoding="UTF-8"?>
<svg xmlns="http://www.w3.org/2000/svg" xmlns:xlink="http://www.w3.org/1999/xlink" id="Background" viewBox="0 0 1280.33 720" preserveAspectRatio="xMaxYMax slice">
  <defs>
    <style>.cls-1{fill:none;}.cls-2{clip-path:url(#clip-path);}.cls-3{fill:url(#linear-gradient);}.cls-4{fill:url(#linear-gradient-2);}.cls-5{fill:url(#linear-gradient-3);}.cls-6{fill:url(#linear-gradient-4);}.cls-7{fill:url(#linear-gradient-5);}</style>
    <clipPath id="clip-path" transform="translate(0 0)">
      <rect class="cls-1" width="1280" height="720" transform="translate(1280 720) rotate(180)" />
    </clipPath>
    <linearGradient id="linear-gradient" x1="887.23" y1="90.23" x2="392.77" y2="946.66" gradientTransform="matrix(1, 0, 0, -1, 0, 1036.9)" gradientUnits="userSpaceOnUse">
      <stop offset="0.13" stop-color="#515a60" />
      <stop offset="0.33" stop-color="#383d41" />
      <stop offset="0.5" stop-color="#1f2122" />
      <stop offset="1" stop-color="#454c55" />
    </linearGradient>
    <linearGradient id="linear-gradient-2" x1="973.17" y1="497.45" x2="973.17" y2="135" gradientTransform="translate(-333)" gradientUnits="userSpaceOnUse">
      <stop offset="0.25" stop-color="#2a2d2e" />
      <stop offset="0.45" stop-color="#2e3234" />
      <stop offset="0.7" stop-color="#3b4043" />
      <stop offset="0.98" stop-color="#4f585d" />
      <stop offset="1" stop-color="#515a60" />
    </linearGradient>
    <linearGradient id="linear-gradient-3" x1="847.05" y1="-249.96" x2="400.2" y2="524.02" gradientTransform="matrix(-1, 0, 0, 1, 1280, 0)" gradientUnits="userSpaceOnUse">
      <stop offset="0" stop-color="#515a60" />
      <stop offset="0.16" stop-color="#3e4549" />
      <stop offset="0.34" stop-color="#2f3335" />
      <stop offset="0.53" stop-color="#25292a" />
      <stop offset="0.72" stop-color="#222526" />
      <stop offset="0.87" stop-color="#3a4144" />
      <stop offset="1" stop-color="#515a60" />
    </linearGradient>
    <linearGradient id="linear-gradient-4" x1="812.11" y1="-259.15" x2="474.99" y2="382.82" gradientTransform="matrix(-0.94, 0.08, 0.09, 1, 1175.05, -68.16)" gradientUnits="userSpaceOnUse">
      <stop offset="0" stop-color="#222526" />
      <stop offset="0.24" stop-color="#272a2c" />
      <stop offset="0.55" stop-color="#343a3d" />
      <stop offset="0.91" stop-color="#4b5358" />
      <stop offset="1" stop-color="#515a60" />
    </linearGradient>
    <linearGradient id="linear-gradient-5" x1="640" y1="467.8" x2="640" y2="720" gradientTransform="matrix(-1, 0, 0, 1, 1280, 0)" gradientUnits="userSpaceOnUse">
      <stop offset="0" stop-color="#475259" />
      <stop offset="0.77" stop-color="#1f2122" />
    </linearGradient>
  </defs>
  <title>hero_bg_large</title>
  <g class="cls-2">
    <rect class="cls-3" y="317" width="1280" height="402.9" transform="translate(1280 1036.9) rotate(180)" />
    <path class="cls-4" d="M0,379.48c170.11,174,374.06,16.78,439.76-14.48,151.35-72,292.66-46,469.86,55.53,186.19,106.67,303.15,83.75,370.38,42.21l.33-321.07L0,135Z" transform="translate(0 0)" />
    <path class="cls-5" d="M1280,290.86s-195.25,154.62-485.27,31.61-511.81-242.6-745-126.42A460.41,460.41,0,0,1,0,217.34V0H1280Z" transform="translate(0 0)" />
    <path class="cls-6" d="M757.64,181.33C470.17,74.17,277-28.88,62.1,114.44A365.17,365.17,0,0,1,0,147.88V0H1181.74C1109.12,134.29,978.86,263.79,757.64,181.33Z" transform="translate(0 0)" />
    <path class="cls-7" d="M0,467.8S95.75,725.54,487.47,576.55C896,453,1280,678,1280,678v41.79L0,720Z" transform="translate(0 0)" />
  </g>
</svg>